<mxfile host="65bd71144e">
    <diagram id="fWZBVNt1LimBXcbVgpcD" name="Page-1">
        <mxGraphModel dx="575" dy="499" grid="1" gridSize="10" guides="1" tooltips="1" connect="1" arrows="1" fold="1" page="1" pageScale="1" pageWidth="850" pageHeight="1100" math="0" shadow="0">
            <root>
                <mxCell id="0"/>
                <mxCell id="1" parent="0"/>
                <mxCell id="3" value="" style="rounded=0;whiteSpace=wrap;html=1;" vertex="1" parent="1">
                    <mxGeometry x="230" y="140" width="200" height="250" as="geometry"/>
                </mxCell>
                <mxCell id="4" value="" style="rounded=0;whiteSpace=wrap;html=1;" vertex="1" parent="1">
                    <mxGeometry x="240" y="160" width="180" height="50" as="geometry"/>
                </mxCell>
                <mxCell id="5" value="7" style="whiteSpace=wrap;html=1;aspect=fixed;" vertex="1" parent="1">
                    <mxGeometry x="245" y="220" width="30" height="30" as="geometry"/>
                </mxCell>
                <mxCell id="6" value="8" style="whiteSpace=wrap;html=1;aspect=fixed;" vertex="1" parent="1">
                    <mxGeometry x="290" y="220" width="30" height="30" as="geometry"/>
                </mxCell>
                <mxCell id="7" value="9" style="whiteSpace=wrap;html=1;aspect=fixed;" vertex="1" parent="1">
                    <mxGeometry x="335" y="220" width="30" height="30" as="geometry"/>
                </mxCell>
                <mxCell id="14" value="/" style="whiteSpace=wrap;html=1;aspect=fixed;" vertex="1" parent="1">
                    <mxGeometry x="380" y="220" width="30" height="30" as="geometry"/>
                </mxCell>
                <mxCell id="15" value="4" style="whiteSpace=wrap;html=1;aspect=fixed;" vertex="1" parent="1">
                    <mxGeometry x="245" y="260" width="30" height="30" as="geometry"/>
                </mxCell>
                <mxCell id="16" value="5" style="whiteSpace=wrap;html=1;aspect=fixed;" vertex="1" parent="1">
                    <mxGeometry x="290" y="260" width="30" height="30" as="geometry"/>
                </mxCell>
                <mxCell id="17" value="6" style="whiteSpace=wrap;html=1;aspect=fixed;" vertex="1" parent="1">
                    <mxGeometry x="335" y="260" width="30" height="30" as="geometry"/>
                </mxCell>
                <mxCell id="18" value="*" style="whiteSpace=wrap;html=1;aspect=fixed;" vertex="1" parent="1">
                    <mxGeometry x="380" y="260" width="30" height="30" as="geometry"/>
                </mxCell>
                <mxCell id="19" value="1" style="whiteSpace=wrap;html=1;aspect=fixed;" vertex="1" parent="1">
                    <mxGeometry x="245" y="300" width="30" height="30" as="geometry"/>
                </mxCell>
                <mxCell id="20" value="2" style="whiteSpace=wrap;html=1;aspect=fixed;" vertex="1" parent="1">
                    <mxGeometry x="290" y="300" width="30" height="30" as="geometry"/>
                </mxCell>
                <mxCell id="21" value="3" style="whiteSpace=wrap;html=1;aspect=fixed;" vertex="1" parent="1">
                    <mxGeometry x="335" y="300" width="30" height="30" as="geometry"/>
                </mxCell>
                <mxCell id="22" value="-" style="whiteSpace=wrap;html=1;aspect=fixed;" vertex="1" parent="1">
                    <mxGeometry x="380" y="300" width="30" height="30" as="geometry"/>
                </mxCell>
                <mxCell id="23" value="CLR" style="whiteSpace=wrap;html=1;aspect=fixed;" vertex="1" parent="1">
                    <mxGeometry x="247.5" y="340" width="30" height="30" as="geometry"/>
                </mxCell>
                <mxCell id="24" value="0" style="whiteSpace=wrap;html=1;aspect=fixed;" vertex="1" parent="1">
                    <mxGeometry x="292.5" y="340" width="30" height="30" as="geometry"/>
                </mxCell>
                <mxCell id="25" value="=" style="whiteSpace=wrap;html=1;aspect=fixed;" vertex="1" parent="1">
                    <mxGeometry x="337.5" y="340" width="30" height="30" as="geometry"/>
                </mxCell>
                <mxCell id="26" value="+" style="whiteSpace=wrap;html=1;aspect=fixed;" vertex="1" parent="1">
                    <mxGeometry x="382.5" y="340" width="30" height="30" as="geometry"/>
                </mxCell>
            </root>
        </mxGraphModel>
    </diagram>
</mxfile>